<?xml version="1.0" encoding="utf-8"?>
<!-- Generator: Adobe Illustrator 23.0.3, SVG Export Plug-In . SVG Version: 6.00 Build 0)  -->
<svg width="100%"  version="1.1" id="Layer_1" xmlns="http://www.w3.org/2000/svg" xmlns:xlink="http://www.w3.org/1999/xlink" x="0px" y="0px"
	 viewBox="0 0 2520 1747.86" style="enable-background:new 0 0 2520 1747.86;" xml:space="preserve">
<style type="text/css">
	.st0{fill:url(#SVGID_1_);}
	.st1{fill:url(#SVGID_2_);}
	.st2{fill:url(#SVGID_3_);}
</style>
<linearGradient id="SVGID_1_" gradientUnits="userSpaceOnUse" x1="2194.1235" y1="0" x2="2194.1235" y2="791.5618">
	<stop  offset="0" style="stop-color:#F99018"/>
	<stop  offset="0.2606" style="stop-color:#F6881B"/>
	<stop  offset="0.664" style="stop-color:#ED7224"/>
	<stop  offset="0.9452" style="stop-color:#E65F2C"/>
</linearGradient>
<path class="st0" d="M2520,672c-62.41,35.74-124.8,71.5-187.22,107.23c-27.71,15.86-55.97,16.67-83.71,0.99
	c-59.72-33.77-119.05-68.21-178.57-102.33c-49.99-28.65-100.02-57.23-150.03-85.85c-25.63-14.67-42.14-36.4-49.2-65.01
	c-1.82-7.37-2.8-15.14-2.81-22.72c-0.17-122.65-0.41-245.3,0.05-367.95c0.14-37.87,17.43-67.26,49.95-86.8
	c26.83-16.12,54.26-31.23,81.41-46.81c1.43-0.82,2.75-1.83,4.12-2.75c172,0,344,0,516,0C2520,224,2520,448,2520,672z"/>
<linearGradient id="SVGID_2_" gradientUnits="userSpaceOnUse" x1="113.8089" y1="1016.0773" x2="113.8089" y2="1477.0488">
	<stop  offset="0" style="stop-color:#01A5FF"/>
	<stop  offset="1" style="stop-color:#0289FF"/>
</linearGradient>
<path class="st1" d="M0,1020c2.55-0.58,5.15-0.99,7.63-1.78c12.12-3.84,23.58-2.5,34.61,3.83c52.55,30.15,105.1,60.31,157.74,90.3
	c18.49,10.53,27.67,26.09,27.64,47.38c-0.1,57.96-0.09,115.92-0.01,173.88c0.03,20.86-8.76,36.4-26.91,46.77
	c-53.18,30.4-106.3,60.89-159.47,91.3c-13.64,7.8-27.44,6.39-41.24,0.32C0,1321.33,0,1170.67,0,1020z"/>
<linearGradient id="SVGID_3_" gradientUnits="userSpaceOnUse" x1="2095.9844" y1="722.0374" x2="2095.9844" y2="1076.2721">
	<stop  offset="0" style="stop-color:#731BCD"/>
	<stop  offset="1" style="stop-color:#4424D9"/>
</linearGradient>
<path class="st2" d="M2254.27,899.63c0,22.33-0.18,44.66,0.06,66.99c0.17,15.48-6.35,27.07-19.55,34.68
	c-40.97,23.63-82.04,47.09-123.12,70.54c-10.4,5.94-21.04,5.89-31.41-0.03c-40.8-23.26-81.55-46.61-122.28-69.98
	c-13.57-7.79-20.37-19.37-20.31-35.27c0.18-44.66,0.24-89.32-0.03-133.99c-0.1-16.71,6.92-28.57,21.27-36.74
	c40.22-22.92,80.37-45.99,120.52-69.04c11.11-6.38,22.1-6.31,33.18,0.05c40.45,23.2,80.93,46.34,121.37,69.56
	c13.55,7.78,20.53,19.32,20.36,35.24C2254.09,854.3,2254.27,876.97,2254.27,899.63z"/>
</svg>
