 <svg fill="#fff" id="ag-speedometer" class="ag-speedometer" width="60px" height="60px" enable-background="new 0 0 470 470" version="1.1" viewBox="0 0 470 470" xml:space="preserve" xmlns="http://www.w3.org/2000/svg" >
    <path d="M401.17,68.83C356.785,24.444,297.771,0,235,0S113.215,24.444,68.83,68.83C24.444,113.216,0,172.229,0,235   s24.444,121.784,68.83,166.17C113.215,445.556,172.229,470,235,470s121.785-24.444,166.17-68.83   C445.556,356.784,470,297.771,470,235S445.556,113.216,401.17,68.83z M235,455c-121.309,0-220-98.691-220-220S113.691,15,235,15   s220,98.691,220,220S356.309,455,235,455z"/>
    <path d="m235 30c-113.04 0-205 91.963-205 205s91.962 205 205 205 205-91.963 205-205-91.962-205-205-205zm0 395c-104.77 0-190-85.233-190-190s85.234-190 190-190 190 85.233 190 190-85.234 190-190 190z"/>
    <path d="m369.97 157.84c-0.092-0.198-0.19-0.395-0.301-0.588-0.136-0.235-0.283-0.458-0.439-0.673-13.509-23.033-32.772-42.296-55.805-55.805-0.214-0.156-0.438-0.304-0.673-0.439-0.193-0.111-0.389-0.208-0.587-0.301-22.753-13.058-49.101-20.532-77.163-20.532-28.063 0-54.412 7.474-77.165 20.534-0.197 0.092-0.393 0.189-0.585 0.299-0.235 0.136-0.458 0.283-0.673 0.439-23.033 13.509-42.296 32.772-55.805 55.805-0.156 0.214-0.304 0.438-0.439 0.673-0.111 0.193-0.209 0.39-0.301 0.588-13.058 22.752-20.532 49.1-20.532 77.162 0 27.312 7.215 54.195 20.873 77.762 0.385 0.66 3.967 6.332 11.159 2.183l20.697-11.949c3.587-2.071 4.816-6.658 2.745-10.245-2.071-3.588-6.658-4.815-10.245-2.745 0 0-8.613 4.973-14.966 8.641-8.874-17.413-14.004-36.571-15.052-56.146h17.289c4.142 0 7.5-3.357 7.5-7.5s-3.358-7.5-7.5-7.5h-17.299c1.063-20.119 6.379-39.128 15.062-56.146l14.966 8.641c1.181 0.682 2.471 1.006 3.743 1.006 2.592 0 5.113-1.345 6.502-3.751 2.071-3.587 0.842-8.174-2.745-10.245l-14.94-8.625c10.696-16.377 24.713-30.394 41.09-41.09l8.625 14.939c1.389 2.406 3.91 3.751 6.502 3.751 1.272 0 2.562-0.324 3.743-1.006 3.587-2.071 4.816-6.658 2.745-10.245l-8.641-14.966c17.017-8.683 36.027-13.999 56.145-15.062v17.298c0 4.143 3.358 7.5 7.5 7.5s7.5-3.357 7.5-7.5v-17.299c20.119 1.063 39.128 6.379 56.145 15.062l-8.641 14.966c-2.071 3.587-0.842 8.174 2.745 10.245 1.181 0.682 2.471 1.006 3.743 1.006 2.592 0 5.113-1.345 6.502-3.751l8.625-14.939c16.377 10.697 30.394 24.713 41.09 41.09l-14.94 8.625c-3.587 2.071-4.816 6.658-2.745 10.245 1.389 2.406 3.91 3.751 6.502 3.751 1.272 0 2.562-0.324 3.743-1.006l14.966-8.641c8.683 17.017 13.998 36.027 15.062 56.146h-17.295c-4.142 0-7.5 3.357-7.5 7.5s3.358 7.5 7.5 7.5h17.29c-1.048 19.561-6.172 38.723-15.034 56.156l-14.984-8.651c-3.588-2.071-8.174-0.843-10.245 2.745-2.071 3.587-0.842 8.174 2.745 10.245l21.651 12.5c1.181 0.682 2.47 1.006 3.743 1.006 2.59 0 5.11-1.344 6.5-3.748 13.63-23.58 20.835-50.467 20.835-77.753-1e-3 -28.062-7.475-54.41-20.533-77.162z"/>
    <path class="ag-speedometer_needle"  d="m260.55 189.15c-3.618-2.01-8.179-0.71-10.192 2.904l-11.582 20.769c-1.23-0.209-2.491-0.324-3.78-0.324-12.407 0-22.5 10.094-22.5 22.5 0 1.404 0.136 2.776 0.383 4.109l-62.173 35.896c-3.587 2.071-4.816 6.658-2.745 10.245 1.389 2.406 3.91 3.751 6.502 3.751 1.272 0 2.562-0.324 3.743-1.006l62.184-35.902c3.934 3.367 9.035 5.407 14.607 5.407 9.66 0 17.915-6.12 21.098-14.685l23.775 0.354c0.038 1e-3 0.076 1e-3 0.114 1e-3 4.085 0 7.429-3.277 7.497-7.376 0.157-9.47-2.27-18.821-7.018-27.045-4.748-8.221-11.634-14.998-19.913-19.598zm-25.554 53.35c-4.136 0-7.5-3.364-7.5-7.5s3.364-7.5 7.5-7.5c1.302 0 2.528 0.335 3.596 0.921 0.019 0.011 0.035 0.023 0.054 0.034 2.297 1.29 3.85 3.738 3.85 6.545 0 0.032-4e-3 0.064-5e-3 0.096-0.063 4.101-3.398 7.404-7.495 7.404zm21.317-14.683c-0.966-2.858-2.489-5.461-4.443-7.677l7.571-13.576c3.188 2.737 5.908 6.009 8.031 9.686 2.123 3.678 3.596 7.669 4.373 11.799l-15.532-0.232z"/>
    <path d="m261.15 375.5h-52.294c-4.142 0-7.5 3.357-7.5 7.5s3.358 7.5 7.5 7.5h52.294c4.142 0 7.5-3.357 7.5-7.5s-3.358-7.5-7.5-7.5z"/>
    <path d="m251.15 360.5c4.142 0 7.5-3.357 7.5-7.5s-3.358-7.5-7.5-7.5h-32.294c-4.142 0-7.5 3.357-7.5 7.5s3.358 7.5 7.5 7.5h32.294z"/>
    </svg>